<svg xmlns="http://www.w3.org/2000/svg" version="1.1" xmlns:xlink="http://www.w3.org/1999/xlink" viewBox="0 0 200 200"><rect width="200" height="200" fill="url('#gradient')"></rect><defs><linearGradient id="gradient" gradientTransform="rotate(61 0.5 0.5)"><stop offset="0%" stop-color="#c1c97a"></stop><stop offset="100%" stop-color="#eeefb8"></stop></linearGradient></defs><g><g fill="#716463" transform="matrix(5.556589147286822,0,0,5.556589147286822,7.095083265110503,140.81677914331127)" stroke="#a49176" stroke-width="0.2"><path d="M6.46-2.97L6.46-2.97Q6.46-3.39 6.02-3.64Q5.58-3.90 4.35-4.17Q3.12-4.44 2.31-4.89Q1.51-5.33 1.09-5.97Q0.67-6.60 0.67-7.42L0.67-7.42Q0.67-8.88 1.88-9.82Q3.08-10.76 5.02-10.76L5.02-10.76Q7.11-10.76 8.38-9.81Q9.65-8.87 9.65-7.32L9.65-7.32L6.35-7.32Q6.35-8.59 5.01-8.59L5.01-8.59Q4.49-8.59 4.14-8.31Q3.79-8.02 3.79-7.59L3.79-7.59Q3.79-7.15 4.22-6.88Q4.65-6.60 5.59-6.43Q6.53-6.25 7.25-6.01L7.25-6.01Q9.63-5.19 9.63-3.07L9.63-3.07Q9.63-1.62 8.34-0.71Q7.06 0.20 5.02 0.20L5.02 0.20Q3.66 0.20 2.60-0.29Q1.53-0.78 0.94-1.62Q0.34-2.46 0.34-3.39L0.34-3.39L3.42-3.39Q3.44-2.66 3.91-2.32Q4.38-1.98 5.11-1.98L5.11-1.98Q5.78-1.98 6.12-2.26Q6.46-2.53 6.46-2.97ZM14.64-10.57L14.64 0L11.34 0L11.34-10.57L14.64-10.57ZM11.14-13.29L11.14-13.29Q11.14-13.99 11.65-14.44Q12.16-14.89 12.97-14.89Q13.78-14.89 14.29-14.44Q14.79-13.99 14.79-13.29Q14.79-12.59 14.29-12.14Q13.78-11.69 12.97-11.69Q12.16-11.69 11.65-12.14Q11.14-12.59 11.14-13.29ZM17.21-13.19L20.50-13.19L20.50-10.57L22.24-10.57L22.24-8.28L20.50-8.28L20.50-3.45Q20.50-2.85 20.71-2.62Q20.93-2.38 21.56-2.38L21.56-2.38Q22.05-2.38 22.38-2.44L22.38-2.44L22.38-0.09Q21.49 0.20 20.53 0.20L20.53 0.20Q18.83 0.20 18.02-0.61Q17.21-1.41 17.21-3.04L17.21-3.04L17.21-8.28L15.86-8.28L15.86-10.57L17.21-10.57L17.21-13.19ZM28.64 0.20L28.64 0.20Q26.21 0.20 24.71-1.25Q23.20-2.71 23.20-5.03L23.20-5.03L23.20-5.30Q23.20-6.92 23.80-8.16Q24.40-9.40 25.56-10.08Q26.71-10.76 28.29-10.76L28.29-10.76Q30.52-10.76 31.81-9.38Q33.10-8.00 33.10-5.53L33.10-5.53L33.10-4.25L26.55-4.25Q26.73-3.36 27.32-2.85Q27.92-2.34 28.87-2.34L28.87-2.34Q30.43-2.34 31.31-3.44L31.31-3.44L32.81-1.66Q32.20-0.81 31.07-0.31Q29.94 0.20 28.64 0.20ZM28.27-8.22L28.27-8.22Q26.83-8.22 26.55-6.31L26.55-6.31L29.87-6.31L29.87-6.56Q29.89-7.35 29.47-7.79Q29.05-8.22 28.27-8.22Z"></path></g></g></svg>